<svg width="611" height="813" viewBox="0 0 611 813" fill="none" xmlns="http://www.w3.org/2000/svg">
<path d="M419.088 270.105V277.646C419.088 341.805 367.093 393.813 302.949 393.813C275.876 393.813 251.26 404.898 233.411 422.751C214.623 441.557 203.327 467.864 204.579 496.636C206.877 549.53 251.333 590.806 304.261 590.806C367.679 590.806 419.088 642.227 419.088 705.66V713.148C419.088 767.174 376.157 812.161 322.15 812.987C294.478 813.413 269.269 802.261 251.073 784.062C233.231 766.215 222.142 741.6 222.142 714.507V665.037C222.142 624.034 188.914 590.799 147.921 590.799H98.4633C44.3098 590.806 0 546.479 0 492.299C0 465.22 11.0691 440.598 28.9316 422.745C46.7741 404.898 71.3832 393.806 98.47 393.806H163.26C195.788 393.806 222.149 367.432 222.149 334.903V271.424C222.149 218.484 263.408 174.01 316.289 171.705C345.061 170.453 371.369 181.751 390.164 200.544C408.006 218.39 419.095 243.019 419.095 270.098L419.088 270.105Z" fill="#002D8D"/>
<path d="M610.94 488.189C611.872 512.404 602.322 534.501 586.497 550.336C571.379 565.458 550.546 574.844 527.609 574.844C500.462 574.844 473.622 568.749 449.299 556.685C441.094 552.614 431.849 550.323 422.072 550.323C412.295 550.323 402.578 552.728 394.213 556.998C371.975 568.349 347.579 574.844 322.61 574.844H317.828C272.819 574.844 234.949 539.691 233.198 494.704C232.259 470.476 241.803 448.352 257.64 432.511C273.478 416.669 293.592 408.002 316.529 408.002C342.444 408.002 368.032 414.744 390.15 428.247C399.448 433.923 410.377 437.194 422.066 437.194C433.754 437.194 444.95 433.843 454.321 428.041C474.847 415.33 498.251 408.002 522.4 408.002H526.297C571.326 408.002 609.208 443.183 610.94 488.189Z" fill="url(#paint0_linear_35_17)"/>
<path d="M96.1189 0H97.6841C150.732 0 193.796 43.0812 193.796 96.1416V143.386C193.796 170.373 171.891 192.283 144.911 192.283H96.1123C43.071 192.283 0 149.202 0 96.1416C0 43.0812 43.071 0 96.1189 0Z" fill="url(#paint1_linear_35_17)"/>
<defs>
<linearGradient id="paint0_linear_35_17" x1="233.138" y1="491.427" x2="611" y2="491.427" gradientUnits="userSpaceOnUse">
<stop stop-color="#3889CB"/>
<stop offset="1" stop-color="#4244C3"/>
</linearGradient>
<linearGradient id="paint1_linear_35_17" x1="0" y1="96.1416" x2="193.796" y2="96.1416" gradientUnits="userSpaceOnUse">
<stop stop-color="#3889CB"/>
<stop offset="1" stop-color="#4244C3"/>
</linearGradient>
</defs>
</svg>
